

<svg width="24" height="24" viewBox="0 0 24 24" fill="none" xmlns="http://www.w3.org/2000/svg">
<path d="M12.925 9.61397C12.9002 9.55366 12.8683 9.4967 12.8299 9.44398C12.7955 9.3897 12.7553 9.33922 12.71 9.29387C12.6632 9.24652 12.6111 9.20452 12.5549 9.16878C12.5022 9.13036 12.4453 9.09842 12.385 9.07362C12.3239 9.04838 12.26 9.03007 12.1951 9.01867C11.8678 8.95456 11.5303 9.05776 11.2951 9.29387C11.2467 9.33787 11.2045 9.38835 11.1701 9.44398C11.1335 9.49781 11.1018 9.55477 11.075 9.61397C11.0491 9.67495 11.0308 9.73883 11.0201 9.80406C10.9933 9.93294 10.9933 10.0656 11.0201 10.1945C11.0308 10.2597 11.0491 10.3236 11.075 10.3846C11.0998 10.4449 11.1317 10.5019 11.1701 10.5546C11.2045 10.6102 11.2466 10.6607 11.2951 10.7047C11.4817 10.8928 11.7353 10.9989 12 11C12.2665 11.0002 12.5221 10.8939 12.71 10.7047C12.7556 10.658 12.7973 10.608 12.835 10.5546C12.8699 10.5008 12.9 10.4438 12.925 10.3846C12.9509 10.3236 12.9692 10.2597 12.9799 10.1945C13.0067 10.0656 13.0067 9.93294 12.9799 9.80406C12.9692 9.73883 12.9509 9.67495 12.925 9.61397L12.925 9.61397Z" fill="white"/>
<path d="M12 13V20" stroke="white" stroke-width="1.5" stroke-linecap="round"/>
<path fill-rule="evenodd" clip-rule="evenodd" d="M10.2111 3.57771C10.9482 2.10361 13.0518 2.10361 13.7889 3.57771L22.5528 21.1056C23.2177 22.4354 22.2507 24 20.7639 24H3.23607C1.7493 24 0.782313 22.4354 1.44721 21.1056L10.2111 3.57771Z" stroke="white" stroke-width="1.5"/>
</svg>