
<svg width="25" height="24" viewBox="0 0 25 24" fill="none" xmlns="http://www.w3.org/2000/svg">
<path fill-rule="evenodd" clip-rule="evenodd" d="M12 16C9.79086 16 8 14.2091 8 12C8 9.79086 9.79086 8 12 8C14.2091 8 16 9.79086 16 12C16 13.0609 15.5786 14.0783 14.8284 14.8284C14.0783 15.5786 13.0609 16 12 16Z" stroke="white" stroke-width="1.5" stroke-linecap="round" stroke-linejoin="round"/>
<path fill-rule="evenodd" clip-rule="evenodd" d="M21.1149 18.9665V16.6658C21.1149 16.096 21.3412 15.5497 21.744 15.1468L23.3709 13.5198C24.2097 12.6809 24.2097 11.3208 23.3709 10.4819L21.744 8.85491C21.3412 8.45206 21.1149 7.90567 21.1149 7.33595V5.03349C21.1149 3.8471 20.1532 2.88534 18.9669 2.88534H16.6646C16.0949 2.88533 15.5485 2.65901 15.1457 2.25615L13.5189 0.629172C12.68 -0.209724 11.32 -0.209724 10.4811 0.629172L8.85428 2.25615C8.45146 2.65901 7.90511 2.88533 7.33542 2.88534H5.03313C4.46315 2.88534 3.91654 3.11189 3.51366 3.51512C3.11078 3.91835 2.88468 4.46518 2.88513 5.03521V7.33595C2.88513 7.90567 2.65882 8.45206 2.25599 8.85491L0.629127 10.4819C-0.209709 11.3208 -0.209709 12.6809 0.629127 13.5198L2.25599 15.1468C2.65882 15.5497 2.88513 16.096 2.88513 16.6658V18.9665C2.88513 20.1529 3.84682 21.1147 5.03313 21.1147H7.33542C7.90511 21.1147 8.45146 21.341 8.85428 21.7439L10.4811 23.3708C11.32 24.2097 12.68 24.2097 13.5189 23.3708L15.1457 21.7439C15.5485 21.341 16.0949 21.1147 16.6646 21.1147H18.9652C19.5351 21.1151 20.0819 20.889 20.4851 20.4861C20.8883 20.0832 21.1149 19.5365 21.1149 18.9665Z" stroke="white" stroke-width="1.5" stroke-linecap="round" stroke-linejoin="round"/>
</svg>