<svg width="22" height="20" viewBox="0 0 22 20" fill="none" xmlns="http://www.w3.org/2000/svg">
<path d="M5.05954 11.0195L5.62177 6.79525L0.745117 3.40985L5.20085 4.91915L6.25315 3.30462L10.0955 0.92041L18.5651 5.58661L19.004 12.7062L15.2308 17.9496L12.2482 18.4066L13.7906 15.5834V12.8655L12.6692 10.7429L11.5297 9.98822L9.77685 11.7952V13.7073L8.40886 14.9881L6.67106 15.1986L5.90138 15.6346L4.63862 15.2317L4.11247 13.3375L5.05954 12.0056V11.0195Z" fill="white"/>
<path d="M12.8475 3.37354C11.9185 3.18111 10.9022 3.23223 10.9022 3.23223C10.9022 3.23223 10.5685 4.7746 8.5 5.18048C8.51503 5.18048 11.233 6.10951 12.8475 3.37354Z" fill="#94A6C3"/>
<path d="M13.6885 17.3694C14.8099 16.4915 15.6518 15.2829 16.0396 13.9149C16.0577 13.8638 16.214 13.7736 16.3192 13.7044C16.4936 13.5992 16.671 13.512 16.7041 13.3707C16.7732 12.9678 16.8093 12.5469 16.8093 12.126C16.8093 11.9696 16.65 11.8103 16.4936 11.654C16.3704 11.5487 16.2471 11.4255 16.2471 11.3383C16.0727 9.74177 15.3361 8.25052 14.1605 7.16515L14.0373 7.28841C15.1767 8.35875 15.9134 9.81393 16.0727 11.3563C16.0907 11.4976 16.229 11.6359 16.3704 11.7772C16.4936 11.8825 16.6349 12.0418 16.6349 12.111C16.6349 12.5138 16.5989 12.9167 16.5297 13.3196C16.5117 13.3887 16.3553 13.4609 16.2321 13.5301C16.0577 13.6172 15.8983 13.7044 15.8652 13.8457C15.4443 15.337 14.4792 16.6358 13.1984 17.4777C13.4269 16.9876 14.1455 15.3911 14.5303 14.5824L14.4612 11.9877L12.2333 9.83197L10.9706 10.0064L9.58453 12.2523C9.58453 12.2523 10.2339 13.0761 9.31995 14.0412C8.427 14.9882 7.72346 15.1987 7.72346 15.1987L7.07404 14.8469C7.26646 14.6004 7.65431 14.2336 7.95196 13.9871C8.46007 13.5661 8.96818 13.5301 8.96818 13.0761C8.98923 12.126 7.97 12.3876 7.97 12.3876L7.60019 12.7393L7.44385 14.0382L6.67417 15.0033L6.58698 14.9852L5.32422 14.7056C5.32422 14.7056 6.09691 14.3027 6.22018 13.8457C6.34345 13.4068 5.97364 11.9516 5.9556 11.8644C5.97364 11.8825 6.32541 12.1801 6.48175 12.6702C6.76136 11.8975 7.13117 11.1609 7.2364 11.0917C7.34163 11.0226 8.76073 10.2679 8.76073 10.2679L8.2887 11.5126L8.64046 11.3202L9.4823 9.2517C9.4823 9.2517 10.3061 8.84882 10.9194 8.84882C12.0229 8.83078 13.6554 7.48083 12.9188 5.06055C13.1293 5.14774 16.7762 6.97272 17.4076 10.5505C17.8797 13.3016 16.3192 15.8782 13.6885 17.3694Z" fill="#94A6C3"/>
<path d="M9.51551 3.75858C9.91839 3.28354 9.76205 2.58301 9.76205 2.58301L8.58648 4.3208C8.56844 4.3208 9.00439 4.33884 9.51551 3.75858Z" fill="#1B314F"/>
<path d="M5.56785 13.2474L5.70916 12.5469C5.70916 12.5469 5.12889 13.5631 5.07778 13.7044C5.02366 13.8638 5.11386 14.1434 5.33935 14.1253C5.56785 14.1073 5.84746 13.7736 5.84746 13.53C5.84746 13.2143 5.56785 13.2474 5.56785 13.2474Z" fill="#1B314F"/>
<path fill-rule="evenodd" clip-rule="evenodd" d="M15.9859 2.09288C15.9859 2.09288 16.8638 2.12895 17.7748 2.23418C15.7213 0.619657 13.7761 0.147626 12.1976 0.147626C10.0909 0.147626 8.64224 0.989131 8.47272 1.0876L8.46044 1.0947L9.14594 0.0063173C9.14594 0.0063173 6.40996 -0.258261 5.44485 2.63706C5.19831 2.02373 4.97282 1.12777 4.97282 1.12777C4.97282 1.12777 3.55071 2.37549 4.21817 4.44401C2.58561 3.84871 0.255515 3.02191 0.165318 3.00687C0.0420488 2.98883 0.00596995 3.04295 0.00596995 3.04295C0.00596995 3.04295 -0.0301089 3.09406 0.075121 3.18426C0.270548 3.3376 3.95359 6.05854 4.76236 6.58469C4.58798 7.21607 4.58798 7.51372 4.76236 7.81137C5.0089 8.21425 5.02393 8.42471 4.99086 8.72236C4.95478 9.02001 4.63909 11.5996 4.56994 11.9153C4.54187 12.0435 4.40382 12.3044 4.25192 12.5915C4.0296 13.0117 3.77761 13.4879 3.79725 13.6862C3.83333 14.0199 4.28732 15.439 4.69321 15.5984C4.99086 15.7036 5.72747 15.9321 6.21754 15.9321C6.39192 15.9321 6.55127 15.896 6.62042 15.8269C6.91807 15.5653 7.00526 15.5112 7.21572 15.5112H7.26683C7.30666 15.5112 7.35026 15.515 7.39762 15.519C7.45393 15.5239 7.51557 15.5292 7.58252 15.5292C7.86213 15.5292 8.23194 15.4751 8.49351 15.2316C8.67414 15.051 8.91701 14.8392 9.14568 14.6399L9.14569 14.6398C9.40422 14.4144 9.64459 14.2049 9.75627 14.0741C10.0209 13.7403 10.1592 13.2863 10.09 12.8293C10.0359 12.4084 10.2644 12.0386 10.529 11.6718C10.8627 11.2328 11.476 10.4451 11.476 10.4451C12.6877 11.3531 13.4423 12.7391 13.4423 14.2815C13.4423 17.0175 11.0581 19.2273 8.11168 19.2273C7.65468 19.2273 7.21873 19.1762 6.77977 19.071C8.12972 19.543 9.26921 19.7024 10.2012 19.7024C12.1826 19.7024 13.2349 18.9838 13.2349 18.9838C13.2349 18.9838 12.8681 19.4588 12.2698 20H12.2878C15.568 19.543 17.1645 16.8431 17.1645 16.8431C17.1645 16.8431 17.0412 17.721 16.8848 18.3163C21.1445 15.1135 20.5427 11.1252 20.4951 10.8102L20.4927 10.7939C20.5101 10.8185 20.6211 10.9535 20.7567 11.1184C20.9024 11.2956 21.0765 11.5074 21.1933 11.6538C21.8968 4.42597 15.9859 2.09288 15.9859 2.09288ZM8.81856 14.0641L8.81848 14.0641L8.8181 14.0645C8.77436 14.1042 8.73161 14.143 8.69195 14.1793C8.62324 14.2421 8.55261 14.3049 8.48257 14.3672L8.48257 14.3672L8.48256 14.3672L8.48255 14.3672C8.33805 14.4958 8.19605 14.622 8.07861 14.7415C8.00946 14.8107 7.86815 14.8467 7.65769 14.8467H7.46527H7.36004H7.29089H7.13154C7.39612 14.495 8.1658 13.6892 8.43038 13.5148C8.74607 13.3044 8.90541 13.0939 8.70999 12.7271C8.51757 12.3573 8.00946 12.4475 8.00946 12.4475C8.00946 12.4475 8.30711 12.3242 8.57168 12.3242C8.23796 12.237 7.81704 12.3242 7.62462 12.5167C7.48439 12.6449 7.45361 12.9919 7.4229 13.3383C7.40751 13.5117 7.39214 13.685 7.36304 13.8305C7.28468 14.2413 7.03631 14.4674 6.65505 14.8146C6.6121 14.8537 6.56747 14.8943 6.5212 14.9369C6.27467 15.1654 6.10029 15.2346 5.95898 15.2346C5.66133 15.1835 5.30956 15.0933 5.06302 15.0061C4.88864 14.7776 4.62406 14.0229 4.55491 13.7073C4.59204 13.5806 4.7133 13.3507 4.81719 13.1537C4.85629 13.0796 4.89294 13.0102 4.92171 12.9526L4.95189 12.8949C5.14399 12.5275 5.2572 12.311 5.29152 12.1108C5.36067 11.8131 5.58917 9.97009 5.67636 9.20041C5.90486 9.49806 6.22055 9.99113 6.14839 10.3068C6.6565 9.58825 6.2897 8.88472 6.11231 8.6051C5.95597 8.32549 5.74551 7.76326 5.91989 7.16796C6.09427 6.57266 6.72565 4.92206 6.72565 4.92206C6.72565 4.92206 6.93611 5.29187 7.23376 5.21971C7.53141 5.15056 9.93366 1.53666 9.93366 1.53666C9.93366 1.53666 10.5831 2.95576 9.89758 3.99303C9.19705 5.02729 8.51155 5.21971 8.51155 5.21971C8.51155 5.21971 9.47666 5.39409 10.3696 4.74467C10.7364 5.60455 11.0882 6.4975 11.1062 6.62077C11.0937 6.6494 11.0462 6.76218 10.9799 6.9198L10.9799 6.91997L10.9798 6.92019L10.9796 6.92051C10.7604 7.44182 10.3355 8.45219 10.2824 8.53295C10.2463 8.56903 10.0028 8.63818 9.82542 8.67426C9.52777 8.76145 9.35339 8.81556 9.28123 8.86668C9.15797 8.97191 8.59574 10.5143 8.33417 11.2689C8.01848 11.3561 7.70279 11.5335 7.47429 11.8823C7.59756 11.7951 7.9824 11.741 8.26501 11.7079C8.51155 11.6898 9.2632 12.0927 9.45862 12.8474V12.8835C9.49771 13.1601 9.41052 13.4246 9.26921 13.6351C9.21314 13.7058 9.00684 13.8931 8.81861 14.064L8.81858 14.0641L8.81856 14.0641ZM7.7722 13.2206C7.76247 13.3905 7.74669 13.6662 7.62161 13.8456C7.65468 13.8095 7.90122 13.5449 8.0275 13.4246C8.08255 13.3743 8.14479 13.3348 8.2042 13.2971C8.33297 13.2153 8.44841 13.142 8.44841 12.9857C8.44841 12.7421 8.11469 12.688 7.97338 12.7241C7.83245 12.7571 7.79917 12.9845 7.7811 13.108L7.78096 13.1089C7.77708 13.1355 7.77487 13.1741 7.7722 13.2206ZM14.6179 10.4932C14.7923 9.60028 14.8103 8.82759 14.7592 8.19621C15.4417 9.1072 15.8626 10.2136 15.9859 11.3531C16.0039 11.4944 16.1422 11.6327 16.2835 11.774C16.4068 11.8793 16.5481 12.0206 16.5481 12.1078C16.5481 12.5106 16.512 12.9135 16.4429 13.3194C16.4248 13.3705 16.2685 13.4607 16.1452 13.5299C15.9709 13.6171 15.8115 13.7042 15.7784 13.8456C15.3936 15.1955 14.5668 16.3891 13.4634 17.2309C15.0929 15.5292 15.8807 12.7211 14.6179 10.4932ZM15.9167 13.8967C15.5319 15.2827 14.654 16.5094 13.5145 17.3873C15.9348 16.2298 17.6004 13.7554 17.6004 10.9141C17.6004 7.21607 14.7923 4.1644 11.1964 3.77655C11.0762 3.96898 10.9529 4.14336 10.8296 4.28466L10.8314 4.2892C11.0944 4.94196 11.7767 6.636 11.7767 6.72299C11.7767 6.82822 11.443 7.68509 11.4069 7.72117C11.3738 7.73921 10.9709 7.77529 10.8116 7.77529C10.6372 8.19621 10.4628 8.59909 10.4267 8.65321C10.3726 8.72236 10.2163 8.77648 9.88255 8.86367C9.85446 8.87176 9.82425 8.88031 9.79317 8.8891C9.62797 8.93585 9.43788 8.98965 9.40751 9.02001C9.32032 9.12524 8.84528 10.37 8.52959 11.2479C8.95051 11.1757 9.32032 11.2629 9.40751 11.299C10.093 10.0002 10.6342 9.29962 10.7755 9.29962C10.7899 9.29809 10.8202 9.29924 10.8636 9.3009C11.2459 9.31549 12.6487 9.36905 13.2319 7.96771C13.8537 6.44859 12.9794 5.15112 12.9184 5.06065C12.9175 5.05927 12.9167 5.05817 12.9162 5.05735C12.9168 5.05764 12.9177 5.05809 12.9189 5.0587C12.9967 5.09649 14.3589 5.75839 14.7051 7.82941C15.4928 8.8306 16.0009 10.0392 16.1422 11.32C16.1422 11.3848 16.2201 11.4694 16.2959 11.5517C16.3222 11.5803 16.3483 11.6086 16.3707 11.6357C16.5271 11.7921 16.6864 11.9514 16.6864 12.1078C16.6864 12.5287 16.6503 12.9496 16.5812 13.3525C16.5481 13.4938 16.3707 13.599 16.1963 13.6862C16.1763 13.6993 16.1545 13.7133 16.1321 13.7275C16.0367 13.7882 15.9313 13.8553 15.9167 13.8967Z" fill="#1B314F"/>
<path d="M8.84858 7.91652C9.18231 7.53168 9.00793 6.81311 8.39158 6.68984C8.55093 6.32304 8.77643 5.58643 8.77643 5.58643C8.77643 5.58643 6.98752 8.39155 6.83118 8.44567C6.67183 8.49979 6.51549 7.88344 6.51549 7.88344C6.18176 9.16424 7.07771 9.33862 7.18294 8.93574C7.67301 8.80947 8.51485 8.28332 8.84858 7.91652Z" fill="#1B314F"/>
<path d="M7.32129 8.59898L8.23228 7.03857C8.23228 7.03857 8.75843 7.30315 8.49385 7.72407C8.16313 8.21414 7.32129 8.59898 7.32129 8.59898Z" fill="#FFD923"/>
<path d="M18.5985 15.8269C18.3339 16.1786 18.0363 16.5454 17.6875 16.8972C19.9484 12.5467 17.7927 8.56601 17.7055 8.40967C17.8649 8.56902 18.0212 8.7434 18.1625 8.89974C19.8973 10.8269 20.1078 13.7223 18.5985 15.8269Z" fill="#D82122"/>
<path d="M20.7031 10.2318C19.9123 8.10914 18.7909 6.30219 16.3195 4.67263C13.9353 3.09418 11.3737 3.21745 11.2324 3.23549C11.2143 3.23549 11.1963 3.23549 11.1963 3.23549C11.2835 3.19941 11.3707 3.18137 11.4579 3.16634C12.002 2.99196 12.7026 2.85065 13.4061 2.76346C15.2672 2.49588 17.1433 3.12725 18.4241 4.48021C18.4421 4.49825 18.4421 4.49825 18.4602 4.51629C19.9153 6.05866 20.67 7.98587 20.7031 10.2318Z" fill="#D82122"/>
<path d="M15.7578 1.54871C13.1451 1.05864 11.4614 1.30217 10.2498 1.75917C10.2137 1.61786 10.0904 1.33825 9.98521 1.10975C9.62142 1.54871 9.23357 2.07486 8.99004 2.40859C8.32258 2.86559 8.04297 3.30455 8.04297 3.30455C8.42781 1.98767 9.55227 1.00753 10.9203 0.760992C11.3051 0.691841 11.726 0.655762 12.183 0.655762C13.3917 0.673801 14.6003 0.971451 15.7578 1.54871Z" fill="#D82122"/>
<path d="M6.09437 4.91596C4.04389 4.84681 4.72638 2.45959 4.76246 2.32129C4.76246 2.33933 4.90076 4.19739 6.09437 4.91596Z" fill="#D82122"/>
<path d="M8.11205 0.619629C6.5336 1.5667 6.84929 3.82764 6.84929 3.82764C5.34 1.53363 7.98878 0.673747 8.11205 0.619629Z" fill="#D82122"/>
<path d="M5.51745 5.54729C5.62268 5.63448 5.72791 5.79382 5.60464 6.02232C5.53549 6.14559 5.43026 6.12755 5.27091 6.0584C5.06045 5.95317 3.79769 5.21656 2.6582 4.46191C3.95704 4.91891 5.27091 5.40898 5.48137 5.51421C5.48137 5.51421 5.49941 5.53225 5.51745 5.54729Z" fill="white"/>
</svg>
