<svg width="15" height="16" viewBox="0 0 15 16" fill="none" xmlns="http://www.w3.org/2000/svg">
<path fill-rule="evenodd" clip-rule="evenodd" d="M13.009 11.989C12.7975 11.989 12.6262 12.1574 12.6262 12.3652C12.6262 12.8825 12.4103 13.3531 12.0632 13.6942C11.716 14.0357 11.2372 14.2474 10.7109 14.2474H3.68117C3.15442 14.2474 2.67554 14.0353 2.32846 13.6942C1.98097 13.353 1.7655 12.8825 1.7655 12.3652V3.63479C1.7655 3.11752 1.98139 2.64691 2.32846 2.30583C2.67603 1.96433 3.15483 1.75259 3.68117 1.75259H10.7109C11.2372 1.75259 11.7161 1.96475 12.0632 2.30583C12.4107 2.64701 12.6262 3.11754 12.6262 3.63479C12.6262 3.84265 12.7975 4.01105 13.009 4.01105C13.2205 4.01105 13.3919 3.84265 13.3919 3.63479C13.3919 2.90967 13.0906 2.25093 12.6048 1.77353C12.1189 1.29613 11.4483 1 10.7108 1H3.68109C2.94323 1 2.27291 1.29613 1.78713 1.77353C1.30134 2.25103 1 2.91008 1 3.63479V12.3652C1 13.0903 1.30134 13.7491 1.78713 14.2265C2.27302 14.7035 2.94365 15 3.68109 15H10.7108C11.4487 15 12.119 14.7039 12.6048 14.2265C13.0906 13.749 13.3919 13.0899 13.3919 12.3652C13.3919 12.1574 13.2205 11.989 13.009 11.989ZM14.2222 8.00046C14.2222 7.88946 14.1735 7.79001 14.0958 7.72106V7.72217L11.2428 4.65498C11.1011 4.50233 10.86 4.49166 10.7047 4.63137C10.5494 4.77064 10.5385 5.00761 10.6807 5.16016L12.9732 7.62476H5.60245C5.39094 7.62476 5.21958 7.79316 5.21958 8.00101C5.21958 8.20887 5.39094 8.37727 5.60245 8.37727H12.9732L10.6807 10.8419C10.5391 10.9944 10.5495 11.231 10.7047 11.3707C10.86 11.5099 11.1007 11.4996 11.2428 11.347L14.0958 8.27986C14.1733 8.21091 14.2222 8.11146 14.2222 8.00046Z" fill="#564DD0"/>
<path d="M12.0632 13.6942L11.888 13.5159L11.8879 13.5159L12.0632 13.6942ZM2.32846 13.6942L2.50369 13.5159L2.50361 13.5158L2.32846 13.6942ZM2.32846 2.30583L2.15325 2.1275L2.15323 2.12752L2.32846 2.30583ZM12.0632 2.30583L11.888 2.48414L11.8881 2.48422L12.0632 2.30583ZM12.6048 1.77353L12.78 1.59522L12.78 1.5952L12.6048 1.77353ZM1.78713 1.77353L1.61189 1.59522L1.61188 1.59524L1.78713 1.77353ZM1.78713 14.2265L1.61189 14.4048L1.61199 14.4049L1.78713 14.2265ZM12.6048 14.2265L12.78 14.4048L12.78 14.4048L12.6048 14.2265ZM14.0958 7.72106L14.2618 7.5341L13.8458 7.16481V7.72106H14.0958ZM14.0958 7.72217L13.9127 7.89244L14.3458 8.35801V7.72217H14.0958ZM11.2428 4.65498L11.0596 4.82508L11.0598 4.82525L11.2428 4.65498ZM10.7047 4.63137L10.8716 4.8175L10.872 4.8172L10.7047 4.63137ZM10.6807 5.16016L10.8638 4.98989L10.8636 4.98973L10.6807 5.16016ZM12.9732 7.62476V7.87476H13.5472L13.1563 7.45449L12.9732 7.62476ZM12.9732 8.37727L13.1563 8.54754L13.5472 8.12727H12.9732V8.37727ZM10.6807 10.8419L10.4977 10.6716L10.4975 10.6718L10.6807 10.8419ZM10.7047 11.3707L10.5375 11.5565L10.5378 11.5568L10.7047 11.3707ZM11.2428 11.347L11.4257 11.5175L11.4259 11.5173L11.2428 11.347ZM14.0958 8.27986L13.9297 8.09301L13.9208 8.1009L13.9127 8.10959L14.0958 8.27986ZM12.8762 12.3652C12.8762 12.2995 12.9315 12.239 13.009 12.239V11.739C12.6636 11.739 12.3762 12.0152 12.3762 12.3652H12.8762ZM12.2384 13.8725C12.6304 13.4873 12.8762 12.9536 12.8762 12.3652H12.3762C12.3762 12.8114 12.1902 13.2189 11.888 13.5159L12.2384 13.8725ZM10.7109 14.4974C11.3054 14.4974 11.8464 14.2581 12.2385 13.8724L11.8879 13.5159C11.5856 13.8133 11.1691 13.9974 10.7109 13.9974V14.4974ZM3.68117 14.4974H10.7109V13.9974H3.68117V14.4974ZM2.15323 13.8725C2.54512 14.2576 3.0862 14.4974 3.68117 14.4974V13.9974C3.22264 13.9974 2.80595 13.8129 2.50369 13.5159L2.15323 13.8725ZM1.5155 12.3652C1.5155 12.9535 1.76081 13.4872 2.15331 13.8726L2.50361 13.5158C2.20112 13.2188 2.0155 12.8114 2.0155 12.3652H1.5155ZM1.5155 3.63479V12.3652H2.0155V3.63479H1.5155ZM2.15323 2.12752C1.76131 2.51267 1.5155 3.0464 1.5155 3.63479H2.0155C2.0155 3.18864 2.20147 2.78114 2.50369 2.48414L2.15323 2.12752ZM3.68117 1.50259C3.08667 1.50259 2.54566 1.74195 2.15325 2.1275L2.50367 2.48415C2.8064 2.18672 3.223 2.00259 3.68117 2.00259V1.50259ZM10.7109 1.50259H3.68117V2.00259H10.7109V1.50259ZM12.2384 2.12752C11.8466 1.74242 11.3055 1.50259 10.7109 1.50259V2.00259C11.169 2.00259 11.5857 2.18708 11.888 2.48414L12.2384 2.12752ZM12.8762 3.63479C12.8762 3.04653 12.6309 2.51281 12.2384 2.12744L11.8881 2.48422C12.1905 2.78121 12.3762 3.18856 12.3762 3.63479H12.8762ZM13.009 3.76105C12.9315 3.76105 12.8762 3.70049 12.8762 3.63479H12.3762C12.3762 3.9848 12.6636 4.26105 13.009 4.26105V3.76105ZM13.1419 3.63479C13.1419 3.70049 13.0866 3.76105 13.009 3.76105V4.26105C13.3545 4.26105 13.6419 3.9848 13.6419 3.63479H13.1419ZM12.4295 1.95184C12.8703 2.38498 13.1419 2.98054 13.1419 3.63479H13.6419C13.6419 2.83881 13.3108 2.11689 12.78 1.59522L12.4295 1.95184ZM10.7108 1.25C11.3803 1.25 11.9886 1.51865 12.4296 1.95186L12.78 1.5952C12.2491 1.07362 11.5162 0.75 10.7108 0.75V1.25ZM3.68109 1.25H10.7108V0.75H3.68109V1.25ZM1.96236 1.95184C2.40317 1.51864 3.01123 1.25 3.68109 1.25V0.75C2.87524 0.75 2.14266 1.07362 1.61189 1.59522L1.96236 1.95184ZM1.25 3.63479C1.25 2.98094 1.52162 2.38506 1.96237 1.95182L1.61188 1.59524C1.08106 2.117 0.75 2.83922 0.75 3.63479H1.25ZM1.25 12.3652V3.63479H0.75V12.3652H1.25ZM1.96236 14.0482C1.52161 13.615 1.25 13.0195 1.25 12.3652H0.75C0.75 13.1612 1.08106 13.8831 1.6119 14.4048L1.96236 14.0482ZM3.68109 14.75C3.01172 14.75 2.40328 14.481 1.96226 14.0481L1.61199 14.4049C2.14276 14.9259 2.87557 15.25 3.68109 15.25V14.75ZM10.7108 14.75H3.68109V15.25H10.7108V14.75ZM12.4295 14.0482C11.9887 14.4814 11.3807 14.75 10.7108 14.75V15.25C11.5167 15.25 12.2492 14.9264 12.78 14.4048L12.4295 14.0482ZM13.1419 12.3652C13.1419 13.0191 12.8703 13.6149 12.4295 14.0482L12.78 14.4048C13.3108 13.883 13.6419 13.1608 13.6419 12.3652H13.1419ZM13.009 12.239C13.0866 12.239 13.1419 12.2995 13.1419 12.3652H13.6419C13.6419 12.0152 13.3545 11.739 13.009 11.739V12.239ZM13.9298 7.90801C13.957 7.93218 13.9722 7.96482 13.9722 8.00046H14.4722C14.4722 7.8141 14.3899 7.64785 14.2618 7.5341L13.9298 7.90801ZM14.3458 7.72217V7.72106H13.8458V7.72217H14.3458ZM11.0598 4.82525L13.9127 7.89244L14.2788 7.5519L11.4259 4.48471L11.0598 4.82525ZM10.872 4.8172C10.926 4.76856 11.0111 4.77281 11.0596 4.82508L11.426 4.48488C11.1911 4.23184 10.7939 4.21477 10.5375 4.44553L10.872 4.8172ZM10.8636 4.98973C10.8171 4.93979 10.8203 4.86356 10.8716 4.8175L10.5378 4.44523C10.2785 4.67772 10.26 5.07543 10.4978 5.3306L10.8636 4.98973ZM13.1563 7.45449L10.8638 4.98989L10.4977 5.33044L12.7902 7.79503L13.1563 7.45449ZM5.60245 7.87476H12.9732V7.37476H5.60245V7.87476ZM5.46958 8.00101C5.46958 7.93532 5.52488 7.87476 5.60245 7.87476V7.37476C5.25699 7.37476 4.96958 7.651 4.96958 8.00101H5.46958ZM5.60245 8.12727C5.52488 8.12727 5.46958 8.06671 5.46958 8.00101H4.96958C4.96958 8.35103 5.25699 8.62727 5.60245 8.62727V8.12727ZM12.9732 8.12727H5.60245V8.62727H12.9732V8.12727ZM10.8638 11.0121L13.1563 8.54754L12.7902 8.207L10.4977 10.6716L10.8638 11.0121ZM10.872 11.1848C10.8204 11.1385 10.8173 11.0622 10.8639 11.012L10.4975 10.6718C10.2608 10.9267 10.2786 11.3235 10.5375 11.5565L10.872 11.1848ZM11.0599 11.1766C11.0111 11.2291 10.9259 11.2332 10.8716 11.1845L10.5378 11.5568C10.794 11.7865 11.1903 11.7702 11.4257 11.5175L11.0599 11.1766ZM13.9127 8.10959L11.0598 11.1768L11.4259 11.5173L14.2788 8.45013L13.9127 8.10959ZM13.9722 8.00046C13.9722 8.03596 13.957 8.06871 13.9297 8.09301L14.2619 8.46671C14.3897 8.3531 14.4722 8.18696 14.4722 8.00046H13.9722Z" fill="#564DD0"/>
</svg>
