<svg width="40" height="40" viewBox="0 0 40 40" fill="none" xmlns="http://www.w3.org/2000/svg">
<circle cx="20" cy="20" r="20" fill="#7E77DD"/>
<path d="M19.25 27C19.25 27.4142 19.5858 27.75 20 27.75C20.4142 27.75 20.75 27.4142 20.75 27H19.25ZM20.75 13C20.75 12.5858 20.4142 12.25 20 12.25C19.5858 12.25 19.25 12.5858 19.25 13H20.75ZM13 19.25C12.5858 19.25 12.25 19.5858 12.25 20C12.25 20.4142 12.5858 20.75 13 20.75V19.25ZM27 20.75C27.4142 20.75 27.75 20.4142 27.75 20C27.75 19.5858 27.4142 19.25 27 19.25V20.75ZM20.75 27V13H19.25V27H20.75ZM13 20.75H27V19.25H13V20.75Z" fill="white"/>
</svg>
