<svg width="25" height="24" viewBox="0 0 25 24" fill="none" xmlns="http://www.w3.org/2000/svg">
<path d="M12 23.9999C8.8174 23.9999 5.76508 22.7356 3.51478 20.4851C1.2643 18.2347 0 15.1824 0 12C0 8.81748 1.2643 5.76506 3.51478 3.51476C5.76525 1.26429 8.81751 0 12 0C15.1825 0 18.2349 1.26429 20.4852 3.51476C22.7357 5.76523 24 8.81748 24 12C24 15.1824 22.7357 18.2348 20.4852 20.4851C18.2347 22.7356 15.1825 23.9999 12 23.9999Z" stroke="white" stroke-width="1.5"/>
<path d="M13.0793 6.29931C13.0504 6.22894 13.0132 6.16249 12.9684 6.10098C12.9283 6.03766 12.8814 5.97876 12.8285 5.92586C12.7738 5.87061 12.7132 5.82162 12.6475 5.77992C12.5861 5.7351 12.5197 5.69783 12.4494 5.6689C12.378 5.63945 12.3035 5.61808 12.2278 5.60479C11.846 5.53 11.4522 5.6504 11.1778 5.92586C11.1213 5.97719 11.072 6.03609 11.0319 6.10098C10.9892 6.16379 10.9522 6.23024 10.921 6.2993C10.8908 6.37045 10.8694 6.44498 10.8569 6.52107C10.8257 6.67144 10.8257 6.82624 10.8569 6.97661C10.8694 7.0527 10.8908 7.12723 10.921 7.19838C10.9499 7.26874 10.9871 7.3352 11.0319 7.3967C11.072 7.46159 11.1213 7.52049 11.1778 7.57182C11.3955 7.79125 11.6913 7.91504 12.0002 7.91634C12.3111 7.9166 12.6093 7.79256 12.8286 7.57182C12.8817 7.51736 12.9304 7.45898 12.9744 7.3967C13.015 7.33389 13.0502 7.26744 13.0793 7.19838C13.1095 7.12723 13.1309 7.0527 13.1434 6.97661C13.1746 6.82624 13.1746 6.67144 13.1434 6.52107C13.1309 6.44498 13.1095 6.37045 13.0793 6.2993L13.0793 6.29931Z" fill="white"/>
<path d="M12.0003 10.2498V18.4164" stroke="white" stroke-width="1.5" stroke-linecap="round"/>
</svg>
