<svg width="27" height="24" viewBox="0 0 27 24" fill="none" xmlns="http://www.w3.org/2000/svg">
<path fill-rule="evenodd" clip-rule="evenodd" d="M17.9994 0H8.00058C3.56939 0.0132357 -0.0122944 3.59439 3.17192e-05 7.99938V16.0006C-0.0122944 20.4056 3.56939 23.9868 8.00058 24H17.9994C22.4306 23.9868 26.0123 20.4056 26 16.0006V7.99938C26.0123 3.59439 22.4306 0.0132357 17.9994 0Z" stroke="white" stroke-width="1.5" stroke-linecap="round" stroke-linejoin="round"/>
<path d="M6.41603 14.376C6.07138 14.1462 5.60573 14.2393 5.37596 14.584C5.1462 14.9286 5.23933 15.3943 5.58397 15.624L6.41603 14.376ZM9 17L8.58397 17.624C8.81411 17.7775 9.11002 17.7918 9.35389 17.6613C9.59776 17.5307 9.75 17.2766 9.75 17H9ZM9.75 7C9.75 6.58579 9.41421 6.25 9 6.25C8.58578 6.25 8.25 6.58579 8.25 7H9.75ZM12.416 15.624C12.7607 15.3943 12.8538 14.9286 12.624 14.584C12.3943 14.2393 11.9286 14.1462 11.584 14.376L12.416 15.624ZM9 17H8.25C8.25 17.2766 8.40224 17.5307 8.6461 17.6613C8.88997 17.7918 9.18588 17.7775 9.41602 17.624L9 17ZM9.75 7C9.75 6.58579 9.41421 6.25 9 6.25C8.58578 6.25 8.25 6.58579 8.25 7H9.75ZM5.58397 15.624L8.58397 17.624L9.41602 16.376L6.41603 14.376L5.58397 15.624ZM9.75 17V7H8.25V17H9.75ZM11.584 14.376L8.58397 16.376L9.41602 17.624L12.416 15.624L11.584 14.376ZM9.75 17V7H8.25V17H9.75Z" fill="white"/>
<path d="M14.416 9.62404C14.0714 9.8538 13.6057 9.76067 13.376 9.41603C13.1462 9.07138 13.2393 8.60573 13.584 8.37596L14.416 9.62404ZM17 7L16.584 6.37596C16.8141 6.22253 17.11 6.20823 17.3539 6.33874C17.5978 6.46926 17.75 6.7234 17.75 7H17ZM17.75 17C17.75 17.4142 17.4142 17.75 17 17.75C16.5858 17.75 16.25 17.4142 16.25 17H17.75ZM20.416 8.37596C20.7607 8.60573 20.8538 9.07138 20.624 9.41603C20.3943 9.76067 19.9286 9.8538 19.584 9.62404L20.416 8.37596ZM17 7H16.25C16.25 6.7234 16.4022 6.46926 16.6461 6.33874C16.89 6.20823 17.1859 6.22253 17.416 6.37596L17 7ZM17.75 17C17.75 17.4142 17.4142 17.75 17 17.75C16.5858 17.75 16.25 17.4142 16.25 17H17.75ZM13.584 8.37596L16.584 6.37596L17.416 7.62404L14.416 9.62404L13.584 8.37596ZM17.75 7V17H16.25V7H17.75ZM19.584 9.62404L16.584 7.62404L17.416 6.37596L20.416 8.37596L19.584 9.62404ZM17.75 7V17H16.25V7H17.75Z" fill="white"/>
</svg>
