<svg width="9" height="9" viewBox="0 0 9 9" fill="none" xmlns="http://www.w3.org/2000/svg">
<path d="M8.7782 0.233065C8.63309 0.0840577 8.43774 0 8.23312 0C8.0285 0 7.83313 0.0821469 7.68804 0.233065L4.46399 3.52652L1.31834 0.242626C1.02068 -0.063032 0.531388 -0.0668536 0.230017 0.236895C-0.0732278 0.540643 -0.076946 1.04306 0.220715 1.35637L3.91145 5.20383C4.05656 5.35284 4.25191 5.4369 4.4584 5.4369C4.66304 5.4369 4.85652 5.35475 5.00164 5.20574L8.77465 1.35445C9.07231 1.04879 9.07603 0.546361 8.78023 0.236895L8.7782 0.233065Z" fill="#564DD0"/>
<path d="M8.7782 8.76693C8.63309 8.91594 8.43774 9 8.23312 9C8.0285 9 7.83313 8.91785 7.68804 8.76693L4.46399 5.47348L1.31834 8.75737C1.02068 9.06303 0.531388 9.06685 0.230017 8.7631C-0.0732278 8.45936 -0.076946 7.95694 0.220715 7.64363L3.91145 3.79617C4.05656 3.64716 4.25191 3.5631 4.4584 3.5631C4.66304 3.5631 4.85652 3.64525 5.00164 3.79426L8.77465 7.64555C9.07231 7.95121 9.07603 8.45364 8.78023 8.7631L8.7782 8.76693Z" fill="#564DD0"/>
</svg>
