<svg width="27" height="24" viewBox="0 0 27 24" fill="none" xmlns="http://www.w3.org/2000/svg">
<path fill-rule="evenodd" clip-rule="evenodd" d="M17.9994 0H8.00058C3.56939 0.0132357 -0.0122944 3.59439 3.17192e-05 7.99938V16.0006C-0.0122944 20.4056 3.56939 23.9868 8.00058 24H17.9994C22.4306 23.9868 26.0123 20.4056 26 16.0006V7.99938C26.0123 3.59439 22.4306 0.0132357 17.9994 0Z" stroke="white" stroke-width="1.5" stroke-linecap="round" stroke-linejoin="round"/>
<path d="M5.75 17.5383C5.75 17.9526 6.08579 18.2883 6.5 18.2883C6.91421 18.2883 7.25 17.9526 7.25 17.5383H5.75ZM7.25 10.1537C7.25 9.73952 6.91421 9.40373 6.5 9.40373C6.08579 9.40373 5.75 9.73952 5.75 10.1537H7.25ZM12.25 17.5383C12.25 17.9526 12.5858 18.2883 13 18.2883C13.4142 18.2883 13.75 17.9526 13.75 17.5383H12.25ZM13.75 6.46143C13.75 6.04721 13.4142 5.71143 13 5.71143C12.5858 5.71143 12.25 6.04721 12.25 6.46143H13.75ZM18.75 17.5383C18.75 17.9526 19.0858 18.2883 19.5 18.2883C19.9142 18.2883 20.25 17.9526 20.25 17.5383H18.75ZM20.25 10.1537C20.25 9.73952 19.9142 9.40373 19.5 9.40373C19.0858 9.40373 18.75 9.73952 18.75 10.1537H20.25ZM7.25 17.5383V10.1537H5.75V17.5383H7.25ZM13.75 17.5383V6.46143H12.25V17.5383H13.75ZM20.25 17.5383V10.1537H18.75V17.5383H20.25Z" fill="white"/>
</svg>
