<svg width="12" height="12" viewBox="0 0 12 12" fill="none" xmlns="http://www.w3.org/2000/svg">
<path fill-rule="evenodd" clip-rule="evenodd" d="M0 6.00002C0 4.40892 0.63216 2.88268 1.75735 1.75739C2.88267 0.632182 4.40871 4.89798e-05 5.99995 0C7.05322 0 8.08782 0.277226 8.99998 0.803856C9.91213 1.33049 10.6695 2.08786 11.1961 3.00001C11.7228 3.91216 12 4.94676 12 6.00002C12 7.59113 11.3678 9.11737 10.2426 10.2427C9.11733 11.3679 7.59111 12 6 12C4.40889 12 2.88264 11.3678 1.75735 10.2427C0.632136 9.11734 0 7.59113 0 6.00002ZM2.36348 9.63663C3.3279 10.6011 4.63603 11.143 6 11.143C7.36392 11.143 8.67203 10.6011 9.63652 9.63663C10.601 8.67222 11.1428 7.36404 11.1428 6.00012C11.1428 4.63621 10.601 3.3281 9.63652 2.36362C8.6721 1.39913 7.36392 0.857293 6 0.857293C4.63608 0.857293 3.32797 1.39913 2.36348 2.36362C1.39899 3.32803 0.85715 4.63621 0.85715 6.00012C0.85715 7.36404 1.39899 8.67214 2.36348 9.63663Z" fill="#D4D1F3"/>
<path d="M6.00001 4.23529C5.90641 4.23529 5.8166 4.28735 5.75043 4.38C5.68425 4.47264 5.64706 4.59838 5.64706 4.72941V8.68236C5.64706 8.85894 5.71434 9.02206 5.82353 9.11029C5.93273 9.19853 6.06729 9.19853 6.17648 9.11029C6.28567 9.02206 6.35295 8.85893 6.35295 8.68236V4.72941C6.35295 4.59838 6.31576 4.47264 6.24959 4.38C6.18341 4.28735 6.0936 4.23529 6.00001 4.23529Z" fill="#D4D1F3"/>
<path d="M6.35295 3.17649C6.35295 3.37139 6.19491 3.52943 6.00001 3.52943C5.8051 3.52943 5.64706 3.37139 5.64706 3.17649C5.64706 2.98158 5.8051 2.82355 6.00001 2.82355C6.19491 2.82355 6.35295 2.98158 6.35295 3.17649Z" fill="#D4D1F3"/>
</svg>
