<svg width="23" height="20" viewBox="0 0 23 20" fill="none" xmlns="http://www.w3.org/2000/svg">
<path fill-rule="evenodd" clip-rule="evenodd" d="M15.3885 0H7.02832C3.3233 0.0110298 0.328588 2.99533 0.338894 6.66615V13.3338C0.328588 17.0047 3.3233 19.989 7.02832 20H15.3885C19.0936 19.989 22.0883 17.0047 22.078 13.3338V6.66615C22.0883 2.99533 19.0936 0.0110298 15.3885 0Z" stroke="white" stroke-width="1.5" stroke-linecap="round" stroke-linejoin="round"/>
<path d="M0 8.56836H7.7765L8.34379 8.9795C10.0778 10.2362 12.4196 10.2491 14.1674 9.01155L14.7933 8.56836H21.7391" stroke="white"/>
<path d="M0.776367 3.99609H7.9974L8.32061 4.2299C10.0531 5.48312 12.3907 5.49598 14.1369 4.26189L14.513 3.99609H20.9627" stroke="white"/>
</svg>
